<svg width="19" height="19" viewBox="0 0 19 19" fill="none" xmlns="http://www.w3.org/2000/svg">
<path d="M17.7258 8.18615C18.1097 9.99976 17.8361 11.8853 16.9508 13.5282C16.0655 15.1711 14.6219 16.4722 12.8609 17.2144C11.0998 17.9567 9.12766 18.0952 7.27334 17.6069C5.41902 17.1186 3.7946 16.0331 2.67098 14.5313C1.54736 13.0294 0.992462 11.2022 1.09881 9.35411C1.20517 7.50606 1.96635 5.74898 3.25541 4.37586C4.54448 3.00275 6.28352 2.09662 8.18251 1.80857C10.0815 1.52052 12.0257 1.86797 13.6908 2.79297" stroke="url(#paint0_linear_111_40)" stroke-width="2" stroke-linecap="round" stroke-linejoin="round"/>
<path d="M6.96875 8.99531L9.49012 11.4228L17.8947 3.33105" stroke="url(#paint1_linear_111_40)" stroke-width="2" stroke-linecap="round" stroke-linejoin="round"/>
<defs>
<linearGradient id="paint0_linear_111_40" x1="5.62915" y1="-9.25578" x2="14.3604" y2="20.6927" gradientUnits="userSpaceOnUse">
<stop stop-color="#1D1DD2"/>
<stop offset="1" stop-color="#101047"/>
</linearGradient>
<linearGradient id="paint1_linear_111_40" x1="9.92184" y1="-2.15181" x2="13.3909" y2="13.3172" gradientUnits="userSpaceOnUse">
<stop stop-color="#1D1DD2"/>
<stop offset="1" stop-color="#101047"/>
</linearGradient>
</defs>
</svg>
