<svg width="14" height="14" viewBox="0 0 14 14" fill="none" xmlns="http://www.w3.org/2000/svg">
<g clip-path="url(#clip0_106_216)">
<path fill-rule="evenodd" clip-rule="evenodd" d="M2.5625 1.61396C2.5625 1.50682 2.60506 1.40406 2.68083 1.32829C2.75659 1.25253 2.85935 1.20996 2.9665 1.20996H8.21852C8.27161 1.20987 8.3242 1.22024 8.37328 1.24048C8.42236 1.26072 8.46696 1.29044 8.50455 1.32793L10.5246 3.34794C10.5621 3.38552 10.5918 3.43013 10.612 3.47921C10.6323 3.52829 10.6426 3.58088 10.6425 3.63397V5.24998H9.83453V4.44197H7.81452C7.70737 4.44197 7.60461 4.39941 7.52885 4.32364C7.45308 4.24788 7.41052 4.14512 7.41052 4.03797V2.01796H3.3705V11.714H9.83453V11.31H10.6425V12.118C10.6425 12.2251 10.6 12.3279 10.5242 12.4037C10.4484 12.4794 10.3457 12.522 10.2385 12.522H2.9665C2.85935 12.522 2.75659 12.4794 2.68083 12.4037C2.60506 12.3279 2.5625 12.2251 2.5625 12.118V1.61396ZM8.21852 2.18522V3.63397H9.66727L8.21852 2.18522ZM4.17851 6.46198C4.17851 6.35483 4.22107 6.25207 4.29683 6.17631C4.3726 6.10054 4.47536 6.05798 4.58251 6.05798H6.60251C6.70966 6.05798 6.81242 6.10054 6.88819 6.17631C6.96395 6.25207 7.00652 6.35483 7.00652 6.46198V8.48199C7.00652 8.58913 6.96395 8.69189 6.88819 8.76766C6.81242 8.84342 6.70966 8.88599 6.60251 8.88599H4.98651V10.098H4.17851V6.46198ZM4.98651 8.07799H6.19851V6.86598H4.98651V8.07799ZM7.41052 10.098V6.05798H9.83453C9.94167 6.05798 10.0444 6.10054 10.1202 6.17631C10.196 6.25207 10.2385 6.35483 10.2385 6.46198V9.69399C10.2385 9.80114 10.196 9.9039 10.1202 9.97966C10.0444 10.0554 9.94167 10.098 9.83453 10.098H7.41052ZM8.21852 6.86598V9.28999H9.43052V6.86598H8.21852ZM10.6425 6.46198C10.6425 6.35483 10.6851 6.25207 10.7609 6.17631C10.8366 6.10054 10.9394 6.05798 11.0465 6.05798H13.0665V6.86598H11.4505V8.07799H13.0665V8.88599H11.4505V10.098H10.6425V6.46198Z" fill="#05063A"/>
</g>
<defs>
<clipPath id="clip0_106_216">
<rect width="12.928" height="12.928" fill="white" transform="translate(0.945312 0.402344)"/>
</clipPath>
</defs>
</svg>
