<svg width="35" height="35" viewBox="0 0 35 35" fill="none" xmlns="http://www.w3.org/2000/svg">
<path d="M17.4583 11.6477C14.241 11.6477 11.6472 14.2665 11.6472 17.4591C11.6472 20.6516 14.2659 23.2704 17.4583 23.2704C20.6506 23.2704 23.2694 20.6516 23.2694 17.4591C23.2694 14.2665 20.6506 11.6477 17.4583 11.6477ZM34.9165 17.4591C34.9165 15.0397 34.9165 12.6703 34.7918 10.251C34.6671 7.45751 34.0187 4.96336 31.9736 2.9431C29.9285 0.897894 27.4594 0.249415 24.666 0.124707C22.2468 -1.20789e-07 19.8775 0 17.4583 0C15.0391 0 12.6697 -1.20789e-07 10.2505 0.124707C7.45718 0.249415 4.96314 0.897894 2.94297 2.9431C0.897854 4.9883 0.249404 7.45751 0.124702 10.251C-1.20783e-07 12.6703 0 15.0397 0 17.4591C0 19.8784 -1.20783e-07 22.2478 0.124702 24.6671C0.249404 27.4606 0.897854 29.9547 2.94297 31.975C4.98808 34.0202 7.45718 34.6687 10.2505 34.7934C12.6697 34.9181 15.0391 34.9181 17.4583 34.9181C19.8775 34.9181 22.2468 34.9181 24.666 34.7934C27.4594 34.6687 29.9534 34.0202 31.9736 31.975C34.0187 29.9298 34.6671 27.4606 34.7918 24.6671C34.9415 22.2728 34.9165 19.8784 34.9165 17.4591ZM17.4583 26.4131C12.4951 26.4131 8.50467 22.4224 8.50467 17.4591C8.50467 12.4957 12.4951 8.50505 17.4583 8.50505C22.4214 8.50505 26.4119 12.4957 26.4119 17.4591C26.4119 22.4224 22.4214 26.4131 17.4583 26.4131ZM26.786 10.226C25.6387 10.226 24.691 9.30318 24.691 8.13093C24.691 6.95868 25.6138 6.03584 26.786 6.03584C27.9582 6.03584 28.881 6.95868 28.881 8.13093C28.8873 8.40413 28.8374 8.67571 28.7344 8.92885C28.6315 9.18198 28.4776 9.41126 28.2824 9.60248C28.0912 9.79771 27.8619 9.95157 27.6088 10.0545C27.3557 10.1575 27.0841 10.2074 26.8109 10.2011L26.786 10.226Z" fill="#05063A"/>
</svg>
