<svg width="23" height="25" viewBox="0 0 23 25" fill="none" xmlns="http://www.w3.org/2000/svg">
<path fill-rule="evenodd" clip-rule="evenodd" d="M17.2923 0.637347C13.4907 -0.212449 9.54829 -0.212449 5.74666 0.637347L5.33704 0.727972C4.26739 0.966415 3.28491 1.49705 2.49898 2.26079C1.71305 3.02454 1.15451 3.99142 0.885538 5.0538C-0.0764293 8.85123 -0.0764293 12.8286 0.885538 16.626C1.14207 17.6392 1.66222 18.5664 2.39314 19.3134C3.12406 20.0605 4.03971 20.6008 5.04704 20.8793L5.60891 24.2337C5.62685 24.3402 5.67301 24.4399 5.7426 24.5226C5.81218 24.6052 5.90264 24.6676 6.00455 24.7034C6.10647 24.7392 6.21611 24.747 6.32206 24.726C6.42802 24.705 6.52641 24.656 6.607 24.5841L9.90696 21.6321C12.3841 21.7817 14.87 21.5836 17.2923 21.0437L17.7031 20.9531C18.7728 20.7146 19.7552 20.184 20.5412 19.4202C21.3271 18.6565 21.8857 17.6896 22.1546 16.6272C23.1166 12.8298 23.1166 8.85244 22.1546 5.05501C21.8856 3.99248 21.3268 3.02549 20.5407 2.26173C19.7545 1.49797 18.7718 0.967424 17.7019 0.72918L17.2923 0.637347ZM6.7665 4.95593C6.54192 4.92304 6.31286 4.96826 6.11762 5.08401H6.1007C5.64758 5.34985 5.23916 5.68455 4.89116 6.07847C4.60116 6.41318 4.44408 6.75151 4.403 7.07776C4.37883 7.2711 4.39575 7.46685 4.45254 7.65172L4.47429 7.6638C4.80054 8.62201 5.22587 9.54397 5.74545 10.4116C6.41571 11.63 7.24014 12.7569 8.19837 13.7647L8.22737 13.8058L8.27329 13.8396L8.30108 13.8722L8.33491 13.9012C9.34626 14.8622 10.4759 15.6906 11.6965 16.3662C13.0921 17.1263 13.9392 17.4851 14.4479 17.635V17.6422C14.5965 17.6881 14.7318 17.7087 14.8684 17.7087C15.3018 17.6776 15.7122 17.5014 16.0332 17.2084C16.4259 16.8604 16.7582 16.4508 17.0168 15.9953V15.9868C17.2597 15.5276 17.1775 15.0951 16.8271 14.8014C16.1238 14.1857 15.3626 13.6394 14.5542 13.1702C14.0129 12.8766 13.4631 13.0542 13.2407 13.3514L12.7659 13.9508C12.5218 14.248 12.0795 14.2069 12.0795 14.2069L12.0675 14.2142C8.7675 13.372 7.88662 10.0309 7.88662 10.0309C7.88662 10.0309 7.84554 9.5766 8.15125 9.3446L8.74575 8.8661C9.03091 8.6341 9.22908 8.08551 8.92337 7.54418C8.45523 6.73632 7.91016 5.97557 7.29575 5.27251C7.16135 5.10743 6.97313 4.99492 6.76408 4.95472M12.3417 3.50351C12.1815 3.50351 12.0278 3.56717 11.9145 3.68047C11.8012 3.79377 11.7376 3.94744 11.7376 4.10768C11.7376 4.26791 11.8012 4.42159 11.9145 4.53489C12.0278 4.64819 12.1815 4.71185 12.3417 4.71185C13.8703 4.71185 15.139 5.21089 16.1432 6.16789C16.6591 6.6911 17.0615 7.31097 17.3249 7.99006C17.5895 8.67035 17.7104 9.39655 17.679 10.124C17.6756 10.2033 17.688 10.2825 17.7152 10.3571C17.7425 10.4317 17.7842 10.5002 17.838 10.5586C17.9465 10.6767 18.0975 10.7468 18.2577 10.7535C18.418 10.7602 18.5743 10.703 18.6924 10.5945C18.8105 10.486 18.8806 10.335 18.8873 10.1747C18.9233 9.28002 18.7749 8.38748 18.4511 7.55264C18.1258 6.71355 17.6305 5.95082 16.9962 5.31239L16.9842 5.3003C15.7384 4.1101 14.1615 3.50351 12.3417 3.50351ZM12.3007 5.49001C12.1404 5.49001 11.9868 5.55367 11.8735 5.66697C11.7601 5.78027 11.6965 5.93394 11.6965 6.09418C11.6965 6.25441 11.7601 6.40809 11.8735 6.52139C11.9868 6.63469 12.1404 6.69835 12.3007 6.69835H12.3212C13.4232 6.77689 14.2255 7.14422 14.7874 7.74718C15.3638 8.36826 15.6622 9.14039 15.6393 10.095C15.6356 10.2552 15.6957 10.4103 15.8064 10.5263C15.9171 10.6422 16.0693 10.7093 16.2296 10.713C16.3898 10.7167 16.5449 10.6566 16.6608 10.5459C16.7767 10.4352 16.8439 10.283 16.8476 10.1228C16.8766 8.86972 16.473 7.78826 15.6731 6.92551V6.9231C14.8551 6.04585 13.7325 5.58185 12.3816 5.49122L12.3611 5.4888L12.3007 5.49001ZM12.2777 7.51397C12.1969 7.50684 12.1154 7.51607 12.0382 7.54111C11.961 7.56616 11.8896 7.6065 11.8283 7.65974C11.7671 7.71298 11.7171 7.77802 11.6816 7.85097C11.646 7.92393 11.6255 8.0033 11.6213 8.08436C11.617 8.16542 11.6292 8.2465 11.657 8.32276C11.6848 8.39902 11.7277 8.46889 11.7831 8.5282C11.8385 8.58752 11.9053 8.63507 11.9795 8.668C12.0537 8.70093 12.1337 8.71858 12.2149 8.71989C12.72 8.74647 13.0426 8.89872 13.2456 9.10293C13.4498 9.30835 13.602 9.63822 13.6298 10.1542C13.6313 10.2353 13.6492 10.3152 13.6822 10.3892C13.7153 10.4633 13.7629 10.5299 13.8223 10.5852C13.8816 10.6404 13.9515 10.6832 14.0277 10.7108C14.1039 10.7385 14.185 10.7506 14.2659 10.7463C14.3469 10.742 14.4262 10.7214 14.4991 10.6858C14.5719 10.6502 14.6369 10.6003 14.6901 10.5391C14.7432 10.4779 14.7835 10.4066 14.8086 10.3294C14.8336 10.2523 14.8428 10.1709 14.8357 10.0901C14.7971 9.36514 14.5699 8.72472 14.1047 8.25347C13.6371 7.78222 13.0003 7.55264 12.2777 7.51397Z" fill="#05063A"/>
</svg>
