<svg width="25" height="25" viewBox="0 0 25 25" fill="none" xmlns="http://www.w3.org/2000/svg">
<path d="M24.1546 5.49429C24.1433 4.97594 24.1018 4.4587 24.0301 3.94521C23.9435 3.48854 23.796 3.04556 23.5915 2.62813C23.1444 1.74505 22.4274 1.02757 21.5446 0.58C21.1298 0.376666 20.6897 0.229564 20.236 0.142583C19.7185 0.06964 19.1972 0.0272748 18.6748 0.0157083C18.4537 0.00725001 18.1673 0.00362503 18.0344 0.00362503L6.13471 0C6.00179 0 5.71542 0.00362499 5.49429 0.0120833C4.97594 0.0233214 4.4587 0.0648784 3.94521 0.136542C3.48854 0.223179 3.04556 0.370704 2.62812 0.575167C1.74505 1.02222 1.02757 1.73927 0.58 2.62208C0.376666 3.03691 0.229564 3.47699 0.142583 3.93071C0.0692357 4.44813 0.0264671 4.96942 0.0145001 5.49188C0.0072501 5.713 0.00241678 5.99937 0.00241678 6.13229L0 18.032C0 18.1649 0.00362499 18.4513 0.0120833 18.6724C0.0233214 19.1907 0.0648784 19.708 0.136542 20.2215C0.223179 20.6781 0.370704 21.1211 0.575167 21.5385C1.02222 22.4216 1.73927 23.1391 2.62208 23.5867C3.03691 23.79 3.47699 23.9371 3.93071 24.0241C4.44815 24.097 4.96944 24.1394 5.49187 24.151C5.713 24.1594 5.99937 24.163 6.13229 24.163L18.032 24.1655C18.1649 24.1655 18.4512 24.1618 18.6724 24.1534C19.1907 24.1421 19.708 24.1006 20.2215 24.0289C20.6781 23.9423 21.1211 23.7948 21.5385 23.5903C22.4221 23.1434 23.14 22.4264 23.5879 21.5434C23.7912 21.1286 23.9383 20.6885 24.0253 20.2348C24.0986 19.7173 24.1414 19.196 24.1534 18.6736C24.1606 18.4525 24.1655 18.1661 24.1655 18.0332L24.1667 6.13471C24.1667 6.00179 24.163 5.71542 24.1546 5.49429ZM12.3455 20.4897H12.3419C10.9034 20.4908 9.48776 20.1301 8.22512 19.4409L3.65762 20.6383L4.88046 16.176C3.93367 14.533 3.55537 12.6236 3.80419 10.7438C4.05302 8.86392 4.91508 7.11869 6.25672 5.77865C7.59835 4.43861 9.34461 3.57863 11.2247 3.33203C13.1049 3.08544 15.0138 3.46602 16.6557 4.41476C18.2975 5.3635 19.5804 6.8274 20.3056 8.57948C21.0308 10.3316 21.1577 12.274 20.6666 14.1055C20.1755 15.937 19.0939 17.5554 17.5895 18.7097C16.085 19.8639 14.2418 20.4896 12.3455 20.4897Z" fill="#05063A"/>
<path d="M12.3514 4.7141C11.0719 4.71372 9.81561 5.05615 8.71325 5.70576C7.6109 6.35538 6.70271 7.28845 6.08313 8.40796C5.46356 9.52747 5.15521 10.7925 5.19017 12.0716C5.22513 13.3506 5.60212 14.5969 6.28193 15.6809L6.4523 15.9516L5.72851 18.593L8.4388 17.8825L8.6998 18.0372C9.8027 18.6916 11.0617 19.0364 12.3441 19.0353H12.3478C14.247 19.0356 16.0686 18.2814 17.4118 16.9387C18.755 15.5959 19.5098 13.7746 19.5102 11.8753C19.5105 9.97602 18.7563 8.15442 17.4135 6.81121C16.0708 5.468 14.2494 4.71321 12.3502 4.71289L12.3514 4.7141ZM16.5612 14.9487C16.4031 15.2104 16.1923 15.4365 15.9423 15.6127C15.6923 15.7889 15.4085 15.9113 15.1088 15.9721C14.6565 16.0499 14.1922 16.0209 13.7531 15.8876C13.3363 15.7584 12.9269 15.6067 12.5266 15.4332C11.04 14.6872 9.77292 13.5675 8.84964 12.184C8.34579 11.5437 8.04004 10.7701 7.96997 9.95827C7.96439 9.62324 8.02853 9.29072 8.15834 8.98181C8.28814 8.67291 8.48076 8.39437 8.72397 8.16389C8.79613 8.08212 8.8843 8.01602 8.98302 7.96967C9.08174 7.92332 9.18892 7.89771 9.29793 7.89443C9.44051 7.89443 9.5843 7.89443 9.70997 7.90168C9.84289 7.90772 10.0193 7.85093 10.1933 8.27143C10.3746 8.7016 10.8047 9.76131 10.8579 9.86885C10.8918 9.9253 10.9112 9.98928 10.9144 10.0551C10.9175 10.1209 10.9044 10.1864 10.876 10.2458C10.822 10.3752 10.7496 10.4961 10.6609 10.6047C10.5522 10.7304 10.435 10.8851 10.3383 10.9817C10.2296 11.0893 10.1184 11.2053 10.2428 11.4203C10.5666 11.9735 10.9701 12.4759 11.4403 12.9114C11.9515 13.3647 12.5374 13.7261 13.1718 13.9796C13.3869 14.0883 13.5126 14.069 13.6383 13.9252C13.7639 13.7814 14.176 13.2969 14.3198 13.0818C14.4636 12.8667 14.6061 12.903 14.8031 12.9743C15.0001 13.0456 16.0598 13.5663 16.2748 13.6751C16.4899 13.7838 16.6337 13.8358 16.6869 13.9252C16.745 14.2713 16.7013 14.6269 16.5612 14.9487Z" fill="#05063A"/>
</svg>
