<svg width="22" height="22" viewBox="0 0 22 22" fill="none" xmlns="http://www.w3.org/2000/svg">
<path d="M4.71429 6.06897C4.09269 6.06897 3.48505 5.891 2.96821 5.55756C2.45137 5.22413 2.04854 4.75021 1.81066 4.19573C1.57279 3.64125 1.51055 3.03112 1.63182 2.44249C1.75309 1.85385 2.05241 1.31316 2.49195 0.888781C2.93149 0.464401 3.49149 0.175394 4.10114 0.0583081C4.7108 -0.0587781 5.34272 0.00131479 5.91701 0.230988C6.49129 0.46066 6.98213 0.849598 7.32748 1.34862C7.67282 1.84763 7.85714 2.43432 7.85714 3.03448C7.85714 3.83928 7.52602 4.61111 6.93662 5.18019C6.34722 5.74926 5.54782 6.06897 4.71429 6.06897ZM4.71429 1.51724C4.40349 1.51724 4.09967 1.60623 3.84125 1.77294C3.58283 1.93966 3.38141 2.17662 3.26247 2.45386C3.14354 2.7311 3.11242 3.03617 3.17305 3.33048C3.23369 3.6248 3.38335 3.89515 3.60312 4.10734C3.82289 4.31953 4.10289 4.46403 4.40772 4.52257C4.71254 4.58112 5.0285 4.55107 5.31565 4.43623C5.60279 4.3214 5.84821 4.12693 6.02088 3.87742C6.19355 3.62791 6.28571 3.33457 6.28571 3.03448C6.28571 2.63209 6.12015 2.24617 5.82545 1.96163C5.53075 1.67709 5.13105 1.51724 4.71429 1.51724ZM17.2857 6.06897C16.6641 6.06897 16.0565 5.891 15.5396 5.55756C15.0228 5.22413 14.62 4.75021 14.3821 4.19573C14.1442 3.64125 14.082 3.03112 14.2032 2.44249C14.3245 1.85385 14.6238 1.31316 15.0634 0.888781C15.5029 0.464401 16.0629 0.175394 16.6726 0.0583081C17.2822 -0.0587781 17.9142 0.00131479 18.4884 0.230988C19.0627 0.46066 19.5536 0.849598 19.8989 1.34862C20.2442 1.84763 20.4286 2.43432 20.4286 3.03448C20.4286 3.83928 20.0974 4.61111 19.508 5.18019C18.9186 5.74926 18.1193 6.06897 17.2857 6.06897ZM17.2857 1.51724C16.9749 1.51724 16.6711 1.60623 16.4127 1.77294C16.1543 1.93966 15.9528 2.17662 15.8339 2.45386C15.715 2.7311 15.6838 3.03617 15.7445 3.33048C15.8051 3.6248 15.9548 3.89515 16.1745 4.10734C16.3943 4.31953 16.6743 4.46403 16.9791 4.52257C17.284 4.58112 17.5999 4.55107 17.8871 4.43623C18.1742 4.3214 18.4196 4.12693 18.5923 3.87742C18.765 3.62791 18.8571 3.33457 18.8571 3.03448C18.8571 2.63209 18.6916 2.24617 18.3969 1.96163C18.1022 1.67709 17.7025 1.51724 17.2857 1.51724ZM18.8571 22H15.7143C15.2975 22 14.8978 21.8401 14.6031 21.5556C14.3084 21.2711 14.1429 20.8852 14.1429 20.4828V15.6724C14.1429 15.3963 14.3667 15.1724 14.6429 15.1724H15.2143C15.4904 15.1724 15.7143 15.3963 15.7143 15.6724V19.9828C15.7143 20.2589 15.9381 20.4828 16.2143 20.4828H18.3571C18.6333 20.4828 18.8571 20.2589 18.8571 19.9828V14.1552C18.8571 13.879 19.081 13.6552 19.3571 13.6552H19.9286C20.2047 13.6552 20.4286 13.4313 20.4286 13.1552V9.10345C20.4286 8.90225 20.3458 8.70929 20.1984 8.56702C20.0511 8.42475 19.8512 8.34483 19.6429 8.34483H14.8834C14.7068 8.34483 14.5434 8.43795 14.4533 8.58982L11.4301 13.6885C11.2364 14.0151 10.7636 14.0151 10.5699 13.6885L7.54669 8.58982C7.45664 8.43795 7.29317 8.34483 7.11661 8.34483H2.35714C2.14876 8.34483 1.94891 8.42475 1.80156 8.56702C1.65421 8.70929 1.57143 8.90225 1.57143 9.10345V13.1552C1.57143 13.4313 1.79529 13.6552 2.07143 13.6552H2.64286C2.919 13.6552 3.14286 13.879 3.14286 14.1552V19.9828C3.14286 20.2589 3.36671 20.4828 3.64286 20.4828H5.78571C6.06186 20.4828 6.28571 20.2589 6.28571 19.9828V15.6724C6.28571 15.3963 6.50957 15.1724 6.78571 15.1724H7.35714C7.63328 15.1724 7.85714 15.3963 7.85714 15.6724V20.4828C7.85714 20.8852 7.69158 21.2711 7.39688 21.5556C7.10218 21.8401 6.70248 22 6.28571 22H3.14286C2.72609 22 2.32639 21.8401 2.03169 21.5556C1.73699 21.2711 1.57143 20.8852 1.57143 20.4828V15.6724C1.57143 15.3963 1.3424 15.1799 1.07928 15.0961C0.848115 15.0225 0.635603 14.8973 0.460261 14.728C0.165561 14.4435 0 14.0576 0 13.6552V9.10345C0 8.49985 0.248341 7.92098 0.690391 7.49417C1.13244 7.06736 1.73199 6.82759 2.35714 6.82759H8.02741C8.20431 6.82759 8.36804 6.92106 8.45797 7.0734L10.5694 10.65C10.7629 10.9777 11.2371 10.9777 11.4306 10.65L13.542 7.0734C13.632 6.92106 13.7957 6.82759 13.9726 6.82759H19.6429C20.268 6.82759 20.8676 7.06736 21.3096 7.49417C21.7517 7.92098 22 8.49985 22 9.10345V13.6552C22 14.0576 21.8344 14.4435 21.5397 14.728C21.3644 14.8973 21.1519 15.0225 20.9207 15.0961C20.6576 15.1799 20.4286 15.3963 20.4286 15.6724V20.4828C20.4286 20.8852 20.263 21.2711 19.9683 21.5556C19.6736 21.8401 19.2739 22 18.8571 22Z" fill="#F9F9F9"/>
</svg>
