<svg width="24" height="23" viewBox="0 0 24 23" fill="none" xmlns="http://www.w3.org/2000/svg">
<path d="M15.1182 0.900391C16.5254 0.900391 17.6678 2.04199 17.668 3.44922V5.09961H18.8008C19.2094 5.09962 19.6105 5.21285 19.958 5.42773C20.3056 5.64272 20.587 5.95073 20.7695 6.31641L23.0342 10.8447C23.1869 11.1496 23.2661 11.4861 23.2666 11.8271V17.0977C23.2665 17.6808 23.0353 18.2399 22.623 18.6523C22.2105 19.0648 21.6508 19.2969 21.0674 19.2969H18.9756C18.7982 20.0781 18.3676 20.7791 17.7461 21.2871C17.1034 21.8125 16.2989 22.0995 15.4688 22.0996C14.6385 22.0996 13.8333 21.8126 13.1904 21.2871C12.569 20.7791 12.1383 20.0781 11.9609 19.2969H10.5771C10.3998 20.0781 9.96909 20.7791 9.34766 21.2871C8.70479 21.8126 7.89962 22.0996 7.06934 22.0996C6.23918 22.0995 5.43477 21.8125 4.79199 21.2871C4.17049 20.7791 3.73987 20.0781 3.5625 19.2969H3.27734C2.60128 19.2968 1.95266 19.0279 1.47461 18.5498C0.996678 18.0717 0.728516 17.4231 0.728516 16.7471V3.44922C0.728717 2.04211 1.87024 0.900592 3.27734 0.900391H15.1182ZM7.06836 16.4971C6.53804 16.4971 6.0293 16.708 5.6543 17.083C5.27929 17.458 5.06836 17.9667 5.06836 18.4971C5.06836 19.0274 5.27929 19.5361 5.6543 19.9111C6.0293 20.2861 6.53804 20.4971 7.06836 20.4971C7.59867 20.4971 8.10743 20.2861 8.48242 19.9111C8.8574 19.5361 9.06836 19.0274 9.06836 18.4971C9.06836 17.9667 8.85741 17.458 8.48242 17.083C8.10743 16.708 7.59867 16.4971 7.06836 16.4971ZM15.4668 16.4971C14.9365 16.4971 14.4277 16.708 14.0527 17.083C13.6778 17.458 13.4668 17.9668 13.4668 18.4971C13.4668 18.7597 13.5186 19.0201 13.6191 19.2627C13.7196 19.5052 13.8671 19.7255 14.0527 19.9111C14.2383 20.0967 14.4587 20.2442 14.7012 20.3447C14.9438 20.4452 15.2042 20.4971 15.4668 20.4971C15.7294 20.4971 15.9898 20.4452 16.2324 20.3447C16.4749 20.2442 16.6952 20.0968 16.8809 19.9111C17.0665 19.7255 17.214 19.5052 17.3145 19.2627C17.4149 19.0201 17.4668 18.7597 17.4668 18.4971C17.4668 17.9667 17.2559 17.458 16.8809 17.083C16.5059 16.708 15.9971 16.4971 15.4668 16.4971ZM17.667 15.6494C18.3158 16.1507 18.7876 16.87 18.9756 17.6973H21.0664C21.2253 17.6971 21.3778 17.6339 21.4902 17.5215C21.6026 17.4091 21.6659 17.2566 21.666 17.0977V12.2979H17.667V15.6494ZM3.27734 2.5C3.02557 2.5001 2.78448 2.60028 2.60645 2.77832C2.42841 2.95636 2.32822 3.19744 2.32812 3.44922V16.7471C2.32812 17.2712 2.75324 17.6971 3.27734 17.6973H3.56152C3.73887 16.9159 4.17043 16.2151 4.79199 15.707C5.43477 15.1817 6.23918 14.8946 7.06934 14.8945C7.89962 14.8945 8.70479 15.1816 9.34766 15.707C9.96909 16.215 10.3998 16.9161 10.5771 17.6973H11.959C12.1644 16.7952 12.709 16.0056 13.4824 15.4941C14.2446 14.9902 15.1684 14.7967 16.0664 14.9482V3.44922C16.0663 3.19744 15.9661 2.95636 15.7881 2.77832C15.61 2.60029 15.369 2.50007 15.1172 2.5H3.27734ZM17.667 10.6982H21.1699L19.3389 7.03027C19.289 6.93076 19.2119 6.84657 19.1172 6.78809C19.0227 6.72986 18.9138 6.69926 18.8027 6.69922H17.667V10.6982Z" fill="#F9F9F9" stroke="#F9F9F9" stroke-width="0.2"/>
</svg>
