<svg width="19" height="26" viewBox="0 0 19 26" fill="none" xmlns="http://www.w3.org/2000/svg">
<path d="M2.20581 10.6774C2.74682 10.5681 3.30884 10.653 3.79398 10.9173C4.27912 11.1815 4.65663 11.6084 4.86077 12.1236L5.67283 14.1613V4.87097C5.67283 4.46031 5.83517 4.06647 6.12415 3.77609C6.41312 3.48571 6.80505 3.32258 7.21372 3.32258C7.62239 3.32258 8.01433 3.48571 8.3033 3.77609C8.59228 4.06647 8.75462 4.46031 8.75462 4.87097V2.54839C8.75462 2.13773 8.91696 1.74389 9.20594 1.45351C9.49491 1.16313 9.88684 1 10.2955 1C10.7042 1 11.0961 1.16313 11.3851 1.45351C11.6741 1.74389 11.8364 2.13773 11.8364 2.54839V4.09677C11.8364 3.68612 11.9988 3.29228 12.2877 3.0019C12.5767 2.71152 12.9686 2.54839 13.3773 2.54839C13.786 2.54839 14.1779 2.71152 14.4669 3.0019C14.7559 3.29228 14.9182 3.68612 14.9182 4.09677V6.41936C14.9182 6.0087 15.0806 5.61486 15.3695 5.32448C15.6585 5.0341 16.0504 4.87097 16.4591 4.87097C16.8678 4.87097 17.2597 5.0341 17.5487 5.32448C17.8377 5.61486 18 6.0087 18 6.41936V18.8065C18 20.4491 17.3506 22.0244 16.1947 23.186C15.0388 24.3475 13.4711 25 11.8364 25C8.21531 25 5.05647 22.5226 4.17816 18.9923L4.13193 18.8065L1.158 12.8297C1.055 12.6223 1.00093 12.3939 1.00001 12.1622C0.999089 11.9304 1.05133 11.7016 1.15268 11.4934C1.25403 11.2852 1.40176 11.1033 1.5844 10.9618C1.76704 10.8203 1.97968 10.723 2.20581 10.6774ZM8.75462 3.32258V12.6129V3.32258ZM11.8364 3.32258V11.0645V3.32258ZM14.9182 6.41936V12.6129V6.41936Z" fill="url(#paint0_linear_106_122)"/>
<path d="M14.9182 6.41936V4.09677C14.9182 3.68612 14.7559 3.29228 14.4669 3.0019C14.1779 2.71152 13.786 2.54839 13.3773 2.54839C12.9686 2.54839 12.5767 2.71152 12.2877 3.0019C11.9988 3.29228 11.8364 3.68612 11.8364 4.09677V2.54839C11.8364 2.13773 11.6741 1.74389 11.3851 1.45351C11.0961 1.16313 10.7042 1 10.2955 1C9.88684 1 9.49491 1.16313 9.20594 1.45351C8.91696 1.74389 8.75462 2.13773 8.75462 2.54839V4.87097C8.75462 4.46031 8.59228 4.06647 8.3033 3.77609C8.01433 3.48571 7.62239 3.32258 7.21372 3.32258C6.80505 3.32258 6.41312 3.48571 6.12415 3.77609C5.83517 4.06647 5.67283 4.46031 5.67283 4.87097V14.1613L4.86077 12.1236C4.65663 11.6084 4.27912 11.1815 3.79398 10.9173C3.30884 10.653 2.74682 10.5681 2.20581 10.6774C1.97968 10.723 1.76704 10.8203 1.5844 10.9618C1.40176 11.1033 1.25403 11.2852 1.15268 11.4934C1.05133 11.7016 0.999089 11.9304 1.00001 12.1622C1.00093 12.3939 1.055 12.6223 1.158 12.8297L4.13193 18.8065L4.17816 18.9923C5.05647 22.5226 8.21531 25 11.8364 25C13.4711 25 15.0388 24.3475 16.1947 23.186C17.3506 22.0244 18 20.4491 18 18.8065V6.41936C18 6.0087 17.8377 5.61486 17.5487 5.32448C17.2597 5.0341 16.8678 4.87097 16.4591 4.87097C16.0504 4.87097 15.6585 5.0341 15.3695 5.32448C15.0806 5.61486 14.9182 6.0087 14.9182 6.41936ZM14.9182 6.41936V12.6129M8.75462 3.32258V12.6129M11.8364 3.32258V11.0645" stroke="#F9F9F9" stroke-width="1.5" stroke-linecap="round" stroke-linejoin="round"/>
<defs>
<linearGradient id="paint0_linear_106_122" x1="5.5948" y1="-15.262" x2="23.012" y2="25.4803" gradientUnits="userSpaceOnUse">
<stop stop-color="#1D1DD2"/>
<stop offset="1" stop-color="#101047"/>
</linearGradient>
</defs>
</svg>
