<svg width="24" height="20" viewBox="0 0 24 20" fill="none" xmlns="http://www.w3.org/2000/svg">
<path d="M5.66406 0.950195C6.19584 0.950195 6.72256 1.05434 7.21387 1.25781C7.70524 1.46134 8.15224 1.75967 8.52832 2.13574C8.9044 2.51182 9.20272 2.95883 9.40625 3.4502C9.60972 3.9415 9.71387 4.46823 9.71387 5C9.71387 5.53177 9.60972 6.0585 9.40625 6.5498C9.20272 7.04117 8.9044 7.48818 8.52832 7.86426C8.15224 8.24033 7.70524 8.53866 7.21387 8.74219C6.72256 8.94566 6.19584 9.0498 5.66406 9.0498C4.58994 9.0498 3.55933 8.62378 2.7998 7.86426C2.04028 7.10474 1.61426 6.07413 1.61426 5C1.61426 3.92587 2.04028 2.89526 2.7998 2.13574C3.55933 1.37622 4.58994 0.950195 5.66406 0.950195ZM5.66406 2.38379C4.97008 2.38379 4.3042 2.65869 3.81348 3.14941C3.32276 3.64013 3.04785 4.30602 3.04785 5C3.04785 5.69398 3.32276 6.35987 3.81348 6.85059C4.3042 7.34131 4.97008 7.61621 5.66406 7.61621C6.35805 7.61621 7.02393 7.34131 7.51465 6.85059C8.00537 6.35987 8.28027 5.69398 8.28027 5C8.28027 4.30602 8.00537 3.64013 7.51465 3.14941C7.02393 2.65869 6.35805 2.38379 5.66406 2.38379Z" fill="#F9F9F9" stroke="#F9F9F9" stroke-width="0.1"/>
<path d="M3.66699 7.2793C3.76111 7.27934 3.85447 7.29792 3.94141 7.33398C4.02842 7.37009 4.10728 7.42355 4.17383 7.49023L4.26367 7.59863C4.28975 7.63758 4.31202 7.67916 4.33008 7.72266C4.36615 7.80958 4.3847 7.90297 4.38477 7.99707C4.38477 8.09134 4.36621 8.18539 4.33008 8.27246C4.29395 8.35949 4.24054 8.43834 4.17383 8.50488L3.72363 8.9541C2.86574 9.81223 2.38393 10.976 2.38379 12.1895V14.6641C2.38379 14.854 2.30808 15.0365 2.17383 15.1709C2.0395 15.3052 1.85695 15.3808 1.66699 15.3809C1.47696 15.3809 1.29455 15.3052 1.16016 15.1709C1.02576 15.0365 0.950195 14.8541 0.950195 14.6641V12.1895C0.950409 10.5959 1.58326 9.0673 2.70996 7.94043L3.15918 7.49023C3.22571 7.42354 3.3046 7.37011 3.3916 7.33398C3.47867 7.29786 3.57273 7.2793 3.66699 7.2793ZM20.333 6.87988C20.4273 6.87988 20.5213 6.89844 20.6084 6.93457C20.6952 6.97067 20.7744 7.02327 20.8408 7.08984L21.29 7.54102L21.4951 7.75684C22.493 8.859 23.0495 10.2952 23.0498 11.7891V14.6641C23.0498 14.8541 22.9742 15.0365 22.8398 15.1709C22.7055 15.3052 22.523 15.3809 22.333 15.3809C22.1431 15.3808 21.9605 15.3052 21.8262 15.1709C21.6919 15.0365 21.6162 14.854 21.6162 14.6641V11.7891C21.616 10.5758 21.1341 9.41271 20.2764 8.55469L19.8262 8.10449C19.7595 8.03795 19.706 7.95907 19.6699 7.87207C19.6339 7.7851 19.6152 7.6918 19.6152 7.59766C19.6152 7.50354 19.6339 7.41019 19.6699 7.32324C19.7061 7.23617 19.7594 7.15642 19.8262 7.08984C19.8927 7.02328 19.9717 6.97064 20.0586 6.93457C20.1456 6.89848 20.2389 6.87993 20.333 6.87988Z" fill="#F9F9F9" stroke="#F9F9F9" stroke-width="0.1"/>
<path d="M11.667 11.9502C12.9177 11.9503 14.1175 12.4467 15.002 13.3311C15.8865 14.2156 16.3838 15.4161 16.3838 16.667V18.4004C16.3837 18.5903 16.3081 18.7729 16.1738 18.9072C16.0395 19.0415 15.8569 19.1161 15.667 19.1162C15.4771 19.1162 15.2945 19.0414 15.1602 18.9072C15.0258 18.7729 14.9503 18.5903 14.9502 18.4004V16.667C14.9502 16.2358 14.8652 15.8085 14.7002 15.4102C14.5352 15.0118 14.2932 14.6496 13.9883 14.3447C13.6834 14.0399 13.3211 13.7978 12.9229 13.6328C12.5247 13.468 12.0979 13.3838 11.667 13.3838C10.7962 13.3838 9.96047 13.729 9.34473 14.3447C8.72898 14.9605 8.38379 15.7962 8.38379 16.667V18.4004C8.38369 18.5903 8.30814 18.7729 8.17383 18.9072C8.03951 19.0415 7.85693 19.1161 7.66699 19.1162C7.47709 19.1162 7.29452 19.0414 7.16016 18.9072C7.02585 18.7729 6.9503 18.5903 6.9502 18.4004V16.667C6.9502 15.4161 7.44651 14.2156 8.33105 13.3311C9.2156 12.4465 10.4161 11.9502 11.667 11.9502ZM17.667 0.950195C18.7408 0.950281 19.7709 1.3765 20.5303 2.13574C21.2898 2.89526 21.7168 3.92587 21.7168 5C21.7168 6.07413 21.2898 7.10474 20.5303 7.86426C19.7709 8.6235 18.7408 9.04972 17.667 9.0498C17.1353 9.0498 16.6084 8.94558 16.1172 8.74219C15.6259 8.53869 15.1788 8.24026 14.8027 7.86426C14.4267 7.48818 14.1283 7.04117 13.9248 6.5498C13.7213 6.05847 13.6162 5.53181 13.6162 5C13.6162 4.46819 13.7213 3.94153 13.9248 3.4502C14.1283 2.95883 14.4267 2.51182 14.8027 2.13574C15.1788 1.75974 15.6259 1.46131 16.1172 1.25781C16.6084 1.05442 17.1353 0.950195 17.667 0.950195ZM17.667 2.38379C16.9731 2.38379 16.3071 2.6588 15.8164 3.14941C15.3257 3.64013 15.0498 4.30602 15.0498 5C15.0498 5.69398 15.3257 6.35987 15.8164 6.85059C16.3071 7.3412 16.9731 7.61621 17.667 7.61621C18.3607 7.61613 19.026 7.34103 19.5166 6.85059C20.0073 6.35987 20.2832 5.69398 20.2832 5C20.2832 4.30602 20.0073 3.64013 19.5166 3.14941C19.026 2.65897 18.3607 2.38387 17.667 2.38379Z" fill="#F9F9F9" stroke="#F9F9F9" stroke-width="0.1"/>
<path d="M11.6641 4.6123C12.7382 4.6123 13.7688 5.03833 14.5283 5.79785C15.2878 6.55737 15.7139 7.58798 15.7139 8.66211C15.7139 9.73624 15.2878 10.7668 14.5283 11.5264C13.7688 12.2859 12.7382 12.7119 11.6641 12.7119C10.5899 12.7119 9.55933 12.2859 8.7998 11.5264C8.04028 10.7668 7.61426 9.73624 7.61426 8.66211C7.61426 7.58798 8.04028 6.55737 8.7998 5.79785C9.55933 5.03833 10.5899 4.6123 11.6641 4.6123ZM11.6641 6.0459C10.9701 6.0459 10.3042 6.3208 9.81348 6.81152C9.32276 7.30224 9.04785 7.96813 9.04785 8.66211C9.04785 9.35609 9.32276 10.022 9.81348 10.5127C10.3042 11.0034 10.9701 11.2783 11.6641 11.2783C12.358 11.2783 13.0239 11.0034 13.5146 10.5127C14.0054 10.022 14.2803 9.35609 14.2803 8.66211C14.2803 7.96813 14.0054 7.30224 13.5146 6.81152C13.0239 6.3208 12.358 6.0459 11.6641 6.0459Z" fill="#F9F9F9" stroke="#F9F9F9" stroke-width="0.1"/>
</svg>
