<svg width="23" height="22" viewBox="0 0 23 22" fill="none" xmlns="http://www.w3.org/2000/svg">
<path d="M2.5127 0.950195V19.9697H21.5332V21.5332H1.71094L0.950195 20.7725V0.950195H2.5127Z" fill="#F9F9F9" stroke="#F9F9F9" stroke-width="0.1"/>
<path d="M19.0947 4.08691L19.1094 4.10156L22.0361 7.02734L22.0713 7.0625L22.0361 7.09863L21.001 8.13379L20.9658 8.16992L20.9307 8.13379L18.5566 5.75977L11.0645 13.2549L11.0498 13.2695H9.97266L9.95801 13.2549L7.58398 10.8799L2.28613 16.1807L2.25098 16.2168L1.17969 15.1455L1.14453 15.1094L1.17969 15.0742L7.03125 9.22168L7.0459 9.20703H8.12402L8.13867 9.22168L10.5107 11.5957L18.0195 4.08691H19.0947Z" fill="#F9F9F9" stroke="#F9F9F9" stroke-width="0.1"/>
</svg>
