<svg width="19" height="19" viewBox="0 0 19 19" fill="none" xmlns="http://www.w3.org/2000/svg">
<path d="M7.03385 11.4788C5.82419 11.4788 4.79608 11.0556 3.94952 10.209C3.10297 9.36245 2.67969 8.33434 2.67969 7.12467C2.67969 6.94892 2.69183 6.77291 2.7161 6.59663C2.74038 6.42088 2.77469 6.24962 2.81902 6.08284C2.85491 5.97148 2.90953 5.89047 2.9829 5.8398C3.05678 5.78913 3.14281 5.75061 3.24098 5.72422C3.33915 5.69783 3.43573 5.69862 3.53073 5.72659C3.62573 5.75404 3.71097 5.80549 3.78644 5.88097L5.92552 7.98917L7.89835 6.01634L5.80519 3.90734C5.73024 3.8324 5.67878 3.74399 5.65081 3.64213C5.62284 3.54027 5.62205 3.44105 5.64844 3.34447C5.67483 3.24788 5.71599 3.16291 5.77194 3.08955C5.82788 3.01619 5.90652 2.96156 6.00785 2.92567C6.1741 2.87079 6.34352 2.8312 6.5161 2.80692C6.68869 2.78265 6.86127 2.77051 7.03385 2.77051C8.24299 2.77051 9.2711 3.19379 10.1182 4.04034C10.9653 4.8869 11.3885 5.91501 11.388 7.12467C11.388 7.48884 11.3513 7.82398 11.278 8.13009C11.2051 8.4362 11.0956 8.72648 10.9494 9.00092L15.5561 13.5981C15.8375 13.8768 15.9781 14.2177 15.9781 14.621C15.9781 15.0242 15.8385 15.3665 15.5593 15.6478C15.2806 15.9285 14.9392 16.0689 14.5349 16.0689C14.1306 16.0689 13.7881 15.927 13.5073 15.643L8.90931 11.0403C8.61481 11.1764 8.31451 11.2836 8.0084 11.3617C7.70228 11.4398 7.37744 11.4788 7.03385 11.4788ZM7.03385 10.6872C7.38324 10.6872 7.7329 10.637 8.08281 10.5368C8.43273 10.4365 8.75626 10.2789 9.0534 10.0641L14.0765 15.0873C14.2032 15.2139 14.3557 15.2765 14.5341 15.2749C14.7125 15.2733 14.8648 15.2092 14.9909 15.0825C15.1181 14.9558 15.1817 14.8033 15.1817 14.6249C15.1817 14.4465 15.1184 14.294 14.9917 14.1673L9.96856 9.14976C10.1755 8.86529 10.3317 8.54836 10.4372 8.19897C10.5428 7.84958 10.5956 7.49148 10.5956 7.12467C10.5956 6.16042 10.2224 5.29592 9.47615 4.53117C8.72987 3.76642 7.77248 3.45662 6.60398 3.60176L8.57127 5.56905C8.69899 5.69677 8.76285 5.84587 8.76285 6.01634C8.76285 6.18681 8.69899 6.33617 8.57127 6.46442L6.37281 8.66209C6.24509 8.79034 6.09599 8.85447 5.92552 8.85447C5.75505 8.85447 5.60569 8.79034 5.47744 8.66209L3.51094 6.69559C3.39588 7.97545 3.72574 8.96055 4.50052 9.65088C5.27583 10.3417 6.12027 10.6872 7.03385 10.6872Z" fill="#565656"/>
</svg>
