<svg width="14" height="15" viewBox="0 0 14 15" fill="none" xmlns="http://www.w3.org/2000/svg">
<g clip-path="url(#clip0_147_67)">
<path d="M4 7.66667H11M7.5 3.66667V1M7.5 1H5.4M7.5 1H8.2M4 6.33333C4 5.62609 4.295 4.94781 4.8201 4.44772C5.3452 3.94762 6.05739 3.66667 6.8 3.66667H8.2C8.94261 3.66667 9.6548 3.94762 10.1799 4.44772C10.705 4.94781 11 5.62609 11 6.33333V12.6C11 12.6525 10.9891 12.7045 10.968 12.7531C10.9469 12.8016 10.916 12.8457 10.877 12.8828C10.838 12.92 10.7917 12.9495 10.7407 12.9696C10.6898 12.9897 10.6352 13 10.58 13H4.42C4.30861 13 4.20178 12.9579 4.12302 12.8828C4.04425 12.8078 4 12.7061 4 12.6V6.33333Z" stroke="#565656" stroke-width="0.8" stroke-linecap="round"/>
</g>
<defs>
<clipPath id="clip0_147_67">
<rect width="14" height="14" fill="white" transform="translate(0 0.5)"/>
</clipPath>
</defs>
</svg>
