<svg width="11" height="14" viewBox="0 0 11 14" fill="none" xmlns="http://www.w3.org/2000/svg">
<path d="M2.5625 7.25L3.07937 8.935C4.0125 11.9787 4.47938 13.5 5.375 13.5C6.27062 13.5 6.7375 11.9781 7.67063 8.935L8.1875 7.25M5.375 5.16687C5.37504 5.52804 5.47288 5.88246 5.65813 6.1925M5.65813 6.1925C5.19813 6.83125 4.42688 7.25 3.55188 7.25C2.1425 7.25 1 6.16188 1 4.81938C1 3.6425 1.87875 2.66063 3.045 2.4375C3.44438 1.59 4.3375 1 5.375 1C6.67 1 7.73938 1.91875 7.905 3.10875M5.65813 6.1925C6.03375 6.82375 6.74562 7.25 7.5625 7.25C8.77062 7.25 9.75 6.3175 9.75 5.16687C9.75 4.12687 8.95 3.265 7.905 3.10875M7.905 3.10875C7.97117 3.57551 7.8931 4.05135 7.68125 4.4725" stroke="#565656" stroke-width="0.8" stroke-linecap="round" stroke-linejoin="round"/>
</svg>
