<svg width="13" height="13" viewBox="0 0 13 13" fill="none" xmlns="http://www.w3.org/2000/svg">
<path d="M1.24444 6.459L11.7556 6.459C11.8204 6.459 11.8826 6.48679 11.9284 6.53627C11.9742 6.58575 12 6.65286 12 6.72283L12 10.9442C12 11.2241 11.897 11.4926 11.7136 11.6905C11.5302 11.8884 11.2815 11.9996 11.0222 11.9996L1.97778 11.9996C1.71845 11.9996 1.46975 11.8884 1.28638 11.6905C1.10302 11.4926 1 11.2241 1 10.9442L1 6.72283C1 6.65286 1.02575 6.58575 1.0716 6.53627C1.11744 6.48679 1.17961 6.459 1.24444 6.459ZM2.95556 4.87598L10.0444 4.87598C10.1741 4.87598 10.2985 4.93157 10.3901 5.03053C10.4818 5.12949 10.5333 5.2637 10.5333 5.40365L10.5333 6.459L2.46667 6.459L2.46667 5.40365C2.46667 5.2637 2.51817 5.12949 2.60986 5.03053C2.70154 4.93157 2.82589 4.87598 2.95556 4.87598Z" stroke="#565656" stroke-width="0.541576" stroke-linecap="round" stroke-linejoin="round"/>
<path d="M3.20703 4.87912C3.20703 3.69185 3.94036 2.50458 5.04036 2.50458L7.24036 2.50458C7.61048 2.51354 7.97402 2.39803 8.2806 2.17405C8.58719 1.95008 8.82164 1.62873 8.95148 1.25453C8.97446 1.18919 9.01317 1.13165 9.06362 1.08784C9.11406 1.04402 9.17441 1.01551 9.23846 1.00524C9.30251 0.994975 9.36794 1.00332 9.428 1.02942C9.48807 1.05553 9.5406 1.09844 9.58019 1.15374C11.0229 3.23963 9.80703 4.88017 9.80703 4.88017M3.20703 8.04621L9.80703 8.04621L9.80703 10.4207L3.20703 10.4207L3.20703 8.04621Z" stroke="#565656" stroke-width="0.541576" stroke-linecap="round" stroke-linejoin="round"/>
</svg>
