<svg width="15" height="11" viewBox="0 0 15 11" fill="none" xmlns="http://www.w3.org/2000/svg">
<path fill-rule="evenodd" clip-rule="evenodd" d="M9.02921 1.78125C8.85071 1.78125 8.69984 1.91336 8.67682 2.08938L8.46786 3.68313C8.44023 3.89563 8.60598 4.08334 8.82061 4.08334H12.6318C12.8464 4.08334 13.0122 3.89563 12.9845 3.68313L12.7756 2.08938C12.7644 2.00394 12.7224 1.92552 12.6576 1.8688C12.5927 1.81208 12.5094 1.78095 12.4232 1.78125H9.02921ZM9.34123 2.48959L9.22578 3.375H12.2273L12.1115 2.48959H9.34123Z" fill="#565656"/>
<path d="M10.7267 5.14583C10.9229 5.14583 11.0819 4.98717 11.0819 4.79167C11.0819 4.59617 10.9225 4.4375 10.7267 4.4375C10.5301 4.4375 10.3711 4.59617 10.3711 4.79167C10.3711 4.98717 10.5305 5.14583 10.7267 5.14583Z" fill="#565656"/>
<path fill-rule="evenodd" clip-rule="evenodd" d="M7.9086 0.541994C7.73081 0.541994 7.58064 0.672682 7.5562 0.847994L6.87195 5.80633C6.84256 6.01883 7.00866 6.20866 7.22435 6.20866H10.3711V9.75033H7.34972V7.74858H2.90635V5.50033H3.57289C4.39739 5.50033 4.93395 4.6351 4.56491 3.89949L3.54314 1.86162C3.13408 1.04668 1.9671 1.04668 1.55839 1.86162L0.53662 3.89949C0.167578 4.6351 0.704141 5.50033 1.52864 5.50033H2.19518V8.45691H6.63856V10.4587H11.0819V6.20866H14.2291C14.2797 6.20883 14.3299 6.19812 14.376 6.17725C14.4222 6.15639 14.4634 6.12586 14.4968 6.08772C14.5301 6.04958 14.5549 6.00472 14.5695 5.95618C14.584 5.90763 14.588 5.85653 14.5811 5.80633L13.8968 0.847994C13.8852 0.763003 13.8431 0.685136 13.7783 0.628856C13.7136 0.572577 13.6306 0.541712 13.5448 0.541994H7.9086ZM8.21849 1.25033L7.63199 5.50033H13.8214L13.2349 1.25033H8.21849ZM2.19518 4.76295H1.52864C1.4657 4.76321 1.40374 4.74733 1.34868 4.71684C1.29362 4.68634 1.24729 4.64225 1.21411 4.58875C1.18094 4.53526 1.16203 4.47416 1.15918 4.41129C1.15633 4.34841 1.16965 4.28585 1.19785 4.22958L2.21997 2.19135C2.25076 2.13 2.298 2.07842 2.35642 2.04237C2.41483 2.00633 2.48212 1.98724 2.55077 1.98724C2.61941 1.98724 2.6867 2.00633 2.74511 2.04237C2.80353 2.07842 2.85077 2.13 2.88156 2.19135L3.90368 4.22958C3.93189 4.28585 3.9452 4.34841 3.94235 4.41129C3.9395 4.47416 3.92059 4.53526 3.88742 4.58875C3.85424 4.64225 3.80791 4.68634 3.75285 4.71684C3.69779 4.74733 3.63583 4.76321 3.57289 4.76295H2.90635V4.26074C2.90635 4.06524 2.74697 3.90658 2.55077 3.90658C2.35456 3.90658 2.19518 4.06524 2.19518 4.26074V4.76295Z" fill="#565656"/>
</svg>
