<svg width="10" height="12" viewBox="0 0 10 12" fill="none" xmlns="http://www.w3.org/2000/svg">
<path fill-rule="evenodd" clip-rule="evenodd" d="M6.91793 0.796914L6.86965 0.84916C6.64876 1.09055 6.51252 1.22811 6.40009 1.3174C6.29317 1.17786 6.18713 1.03765 6.08198 0.896778C5.89085 0.649433 5.73213 0.470207 5.56944 0.333308C5.37103 0.165325 5.17395 0.0687674 4.96166 0.0687674C4.84967 0.0696492 4.74143 0.0958827 4.63693 0.147468C4.38099 0.271802 4.16671 0.505258 3.87969 0.906698C3.84331 0.95696 3.75271 1.08659 3.69848 1.16462L3.65681 1.22415L3.58671 1.32136L3.57613 1.31343C3.45775 1.22282 3.31556 1.0846 3.08078 0.83924L3.03514 0.791623C2.68264 0.421267 2.58675 0.324049 2.43927 0.203683C2.3189 0.105803 2.21507 0.0429748 2.10198 0.0151981C1.99878 -0.0134647 1.88851 -0.0012867 1.79406 0.0492042C1.6996 0.0996951 1.62822 0.184621 1.59472 0.286352C1.41449 0.78624 1.32295 1.31377 1.32423 1.84515C1.32423 4.28289 2.65751 5.95346 4.96166 5.95346C7.2658 5.95346 8.59908 4.28289 8.59908 1.84515C8.60015 1.31373 8.50839 0.7862 8.32793 0.286352C8.2943 0.184889 8.22297 0.100231 8.12868 0.0498852C8.03439 -0.000460405 7.92436 -0.0126421 7.82134 0.0158594C7.70891 0.0442974 7.60706 0.108448 7.49066 0.207651C7.34781 0.328678 7.25919 0.42259 6.91793 0.796252M1.98558 1.84515C1.98558 1.48802 2.03254 1.13817 2.1238 0.805511C2.21176 0.887519 2.32552 1.00524 2.55633 1.24795L2.60262 1.29623C2.86121 1.56673 3.01927 1.7195 3.17337 1.83854C3.47428 2.06869 3.75139 2.15004 3.98286 1.8855C4.04503 1.81473 4.10852 1.73008 4.19648 1.60575C4.20243 1.59847 4.22028 1.57268 4.24409 1.53829L4.41737 1.2916C4.64024 0.980769 4.80426 0.801543 4.92528 0.742683C4.93666 0.736285 4.94891 0.731604 4.96166 0.728795C4.98745 0.728795 5.05226 0.761862 5.14287 0.837918C5.26191 0.93712 5.39418 1.08725 5.5582 1.30086C5.53703 1.27309 5.91863 1.78365 6.00791 1.88483C6.23939 2.1507 6.51715 2.06737 6.80947 1.83589C6.95893 1.71751 7.11171 1.56342 7.35773 1.29491L7.40667 1.242C7.61367 1.0145 7.72213 0.8981 7.80348 0.817416C7.89291 1.15244 7.93805 1.49774 7.93773 1.84449C7.93773 3.94626 6.8637 5.29211 4.96166 5.29211C3.05961 5.29211 1.98558 3.94626 1.98558 1.84515Z" fill="#565656"/>
<path d="M4.63281 6.28478C4.63281 6.19708 4.66765 6.11297 4.72966 6.05095C4.79168 5.98894 4.87579 5.9541 4.96349 5.9541C5.05119 5.9541 5.1353 5.98894 5.19731 6.05095C5.25932 6.11297 5.29416 6.19708 5.29416 6.28478V10.5836C5.29416 10.6713 5.25932 10.7554 5.19731 10.8174C5.1353 10.8794 5.05119 10.9142 4.96349 10.9142C4.87579 10.9142 4.79168 10.8794 4.72966 10.8174C4.66765 10.7554 4.63281 10.6713 4.63281 10.5836V6.28478Z" fill="#565656"/>
<path fill-rule="evenodd" clip-rule="evenodd" d="M6.34498 7.87022C5.03881 8.96608 4.17112 10.3741 4.77295 11.0917C5.38735 11.8238 7.3251 11.3641 8.4699 10.4039C9.58427 9.46871 10.0783 8.15394 9.45862 7.41588C8.83893 6.67715 7.45869 6.93507 6.34498 7.87022ZM8.04465 9.8966C7.14389 10.6532 5.57914 11.0235 5.28021 10.6664C5.03948 10.38 5.74315 9.2379 6.76957 8.37682C7.64123 7.64536 8.63259 7.46019 8.95202 7.84112C9.27145 8.22206 8.91631 9.16515 8.04465 9.8966Z" fill="#565656"/>
<path fill-rule="evenodd" clip-rule="evenodd" d="M3.38346 7.87022C4.68963 8.96608 5.55798 10.3741 4.95549 11.0917C4.34176 11.8238 2.40334 11.3641 1.25855 10.4039C0.144171 9.46871 -0.349196 8.15394 0.270489 7.41588C0.890174 6.67715 2.26909 6.93507 3.38346 7.87022ZM1.68446 9.8966C2.58588 10.6532 4.14997 11.0235 4.44956 10.6664C4.69029 10.38 3.98661 9.2379 2.95954 8.37682C2.08788 7.64536 1.09718 7.46019 0.777083 7.84112C0.458313 8.2214 0.812796 9.16515 1.68446 9.8966Z" fill="#565656"/>
</svg>
