<svg width="12" height="12" viewBox="0 0 12 12" fill="none" xmlns="http://www.w3.org/2000/svg">
<path d="M10.9255 4.85832C10.6611 4.17329 10.2378 3.64185 9.70041 3.31734C9.57532 3.55569 9.42629 3.78068 9.25564 3.98885L9.25853 3.99045C10.0589 4.4543 10.5211 5.63395 10.3825 6.85916C10.1529 8.88902 9.53109 10.2785 8.63156 10.7716C8.04675 11.0922 7.31906 11.0436 6.46858 10.6273L6.38551 10.5868L5.77197 10.5846L5.68863 10.6245C4.83515 11.0346 4.10713 11.0779 3.52467 10.7531C2.62876 10.2535 2.01709 8.85952 1.80217 6.82805C1.67248 5.60186 2.14323 4.42557 2.94689 3.96756C3.20575 3.82092 3.49899 3.74585 3.79647 3.75007C4.40383 3.75227 5.10273 4.03935 5.86127 4.60423L5.88832 4.62446C5.88832 4.62446 6.9852 4.49513 7.42027 4.2995C8.7311 3.71012 9.02329 2.76682 9.07498 2.63875C9.22727 2.26463 9.30416 1.86411 9.30122 1.46018C9.29827 1.05626 9.21556 0.6569 9.05783 0.285036L8.95629 0.0288475L8.68084 0.0306161C8.24525 0.0338103 7.81526 0.129105 7.41911 0.310243C7.02296 0.491381 6.6696 0.754265 6.38224 1.08164C6.09488 1.40901 5.88001 1.79346 5.75175 2.20975C5.62349 2.62603 5.58473 3.06475 5.63802 3.49707C5.16353 3.22894 4.70181 3.05738 4.25916 2.98541C3.63204 2.88339 3.05641 2.97854 2.54827 3.26816C1.9902 3.58624 1.54943 4.124 1.27367 4.82327C1.02296 5.45901 0.926338 6.20104 1.00159 6.91267C1.24828 9.24514 1.98514 10.8162 3.13254 11.4562C3.50954 11.6672 3.93457 11.7774 4.36658 11.7762C4.85928 11.778 5.38914 11.6493 5.95224 11.3901L6.19953 11.391C7.26422 11.8903 8.2123 11.9195 9.01858 11.4775C10.1705 10.846 10.9189 9.28025 11.1825 6.94959C11.2628 6.23857 11.1716 5.49585 10.9255 4.85832ZM7.81 1.01758C8.00054 0.936376 8.20127 0.881547 8.40664 0.854618C8.49668 1.17029 8.51763 1.50166 8.46806 1.82616C8.41849 2.15065 8.29957 2.46066 8.11938 2.73505C7.9392 3.00944 7.70199 3.24177 7.42391 3.41621C7.14584 3.59066 6.83343 3.70312 6.50797 3.74594C6.3555 3.21061 6.40364 2.63804 6.64337 2.1357C6.8831 1.63335 7.29793 1.23577 7.81 1.01758Z" fill="#565656"/>
</svg>
