<svg width="11" height="12" viewBox="0 0 11 12" fill="none" xmlns="http://www.w3.org/2000/svg">
<path d="M4.1684 6.7998H3.64062M7.86285 6.7998H7.33507" stroke="#565656" stroke-width="0.75" stroke-linecap="round" stroke-linejoin="round"/>
<path d="M5.75 0.5H10.1833C10.2673 0.5 10.3479 0.533187 10.4073 0.592261C10.4666 0.651335 10.5 0.731457 10.5 0.815V10.685C10.5 10.7685 10.4666 10.8487 10.4073 10.9077C10.3479 10.9668 10.2673 11 10.1833 11H5.75M5.75 0.5H1.31667C1.23268 0.5 1.15214 0.533187 1.09275 0.592261C1.03336 0.651335 1 0.731457 1 0.815V10.685C1 10.7685 1.03336 10.8487 1.09275 10.9077C1.15214 10.9668 1.23268 11 1.31667 11H5.75M5.75 0.5V11" stroke="#565656" stroke-width="0.75"/>
</svg>
