<svg width="16" height="17" viewBox="0 0 16 17" fill="none" xmlns="http://www.w3.org/2000/svg">
<path d="M12.3617 5.74468C12.4046 5.75513 12.4492 5.75697 12.4928 5.75007C12.5364 5.74317 12.5782 5.72769 12.6157 5.7045C12.6533 5.68132 12.6859 5.65091 12.7116 5.61503C12.7373 5.57915 12.7556 5.53853 12.7655 5.4955C12.7754 5.45248 12.7767 5.40792 12.7692 5.36442C12.7617 5.32091 12.7457 5.27932 12.722 5.24206C12.6983 5.2048 12.6675 5.17262 12.6313 5.14738C12.5951 5.12213 12.5542 5.10433 12.5111 5.09501L10.3057 4.58835C10.2625 4.57685 10.2174 4.57417 10.1731 4.58047C10.1289 4.58676 10.0863 4.60191 10.048 4.62499C10.0097 4.64808 9.97641 4.67864 9.95016 4.71485C9.92392 4.75106 9.90522 4.79219 9.8952 4.83577C9.88517 4.87936 9.88402 4.92452 9.89182 4.96856C9.89961 5.0126 9.91618 5.05462 9.94056 5.09212C9.96493 5.12962 9.9966 5.16184 10.0337 5.18684C10.0708 5.21185 10.1125 5.22914 10.1564 5.23768L12.3617 5.74468Z" fill="#565656"/>
<path fill-rule="evenodd" clip-rule="evenodd" d="M11.3337 7.83333C12.0409 7.83333 12.7192 7.55238 13.2193 7.05228C13.7194 6.55219 14.0003 5.87391 14.0003 5.16667C14.0003 4.45942 13.7194 3.78115 13.2193 3.28105C12.7192 2.78095 12.0409 2.5 11.3337 2.5C10.6264 2.5 9.94815 2.78095 9.44806 3.28105C8.94796 3.78115 8.66701 4.45942 8.66701 5.16667C8.66701 5.87391 8.94796 6.55219 9.44806 7.05228C9.94815 7.55238 10.6264 7.83333 11.3337 7.83333ZM11.3337 7.16667C11.5963 7.16667 11.8564 7.11493 12.099 7.01443C12.3417 6.91392 12.5622 6.7666 12.7479 6.58088C12.9336 6.39516 13.0809 6.17468 13.1814 5.93203C13.2819 5.68938 13.3337 5.42931 13.3337 5.16667C13.3337 4.90402 13.2819 4.64395 13.1814 4.4013C13.0809 4.15865 12.9336 3.93817 12.7479 3.75245C12.5622 3.56674 12.3417 3.41942 12.099 3.31891C11.8564 3.2184 11.5963 3.16667 11.3337 3.16667C10.8032 3.16667 10.2945 3.37738 9.91946 3.75245C9.54439 4.12753 9.33368 4.63623 9.33368 5.16667C9.33368 5.6971 9.54439 6.20581 9.91946 6.58088C10.2945 6.95595 10.8032 7.16667 11.3337 7.16667ZM5.59301 3.58167C5.37734 3.071 4.65534 3.01967 4.36568 3.494L2.09768 7.205C1.83601 7.633 2.12834 8.17967 2.63868 8.216L6.59401 8.498C7.10401 8.53467 7.47534 8.03533 7.28068 7.57467L5.59301 3.58167ZM4.93734 3.83767L4.93434 3.84167L2.67034 7.54667L2.67101 7.54733L2.67434 7.54867C2.67817 7.55018 2.68223 7.55097 2.68634 7.551L6.64201 7.833H6.65468C6.65815 7.83187 6.66142 7.83018 6.66434 7.828L4.97901 3.84133L4.97768 3.838C4.97224 3.83477 4.966 3.83315 4.95968 3.83333C4.95265 3.83263 4.94555 3.83366 4.93901 3.83633L4.93801 3.83667L4.93734 3.83767ZM11.7953 12.62C12.2761 12.3958 12.6481 11.9899 12.8295 11.4915C13.011 10.993 12.987 10.4429 12.7628 9.96217C12.5387 9.48142 12.1327 9.1094 11.6343 8.92796C11.1359 8.74652 10.5858 8.77051 10.105 8.99467L6.47968 10.6847C5.99888 10.9088 5.62683 11.3148 5.44535 11.8133C5.26388 12.3117 5.28786 12.8619 5.51201 13.3427C5.73616 13.8235 6.14213 14.1955 6.6406 14.377C7.13907 14.5585 7.68922 14.5345 8.17001 14.3103L11.7953 12.62ZM6.76134 11.2893C6.60091 11.3622 6.45651 11.4662 6.3365 11.5952C6.21649 11.7242 6.12325 11.8758 6.06216 12.0411C6.00108 12.2063 5.97336 12.3821 5.98061 12.5582C5.98787 12.7342 6.02995 12.9071 6.10442 13.0668C6.1789 13.2265 6.28429 13.3699 6.41451 13.4886C6.54472 13.6073 6.69718 13.699 6.86307 13.7585C7.02895 13.8179 7.20498 13.8439 7.38096 13.8349C7.55694 13.8259 7.72939 13.7821 7.88834 13.706L9.37701 13.0117L8.25034 10.595L6.76134 11.2893ZM9.98134 12.73L8.85434 10.3133L10.3867 9.59867C10.5457 9.52172 10.7185 9.47716 10.895 9.46757C11.0714 9.45798 11.248 9.48356 11.4145 9.54282C11.5809 9.60208 11.734 9.69384 11.8646 9.81276C11.9953 9.93168 12.1011 10.0754 12.1758 10.2355C12.2504 10.3957 12.2925 10.5691 12.2996 10.7457C12.3066 10.9222 12.2785 11.0984 12.2169 11.264C12.1553 11.4296 12.0613 11.5813 11.9405 11.7103C11.8198 11.8393 11.6745 11.943 11.5133 12.0153L9.98134 12.73Z" fill="#565656"/>
</svg>
